<svg width="16" height="12" viewBox="0 0 16 12" fill="none" xmlns="http://www.w3.org/2000/svg">
<path id="Vector" d="M14.2222 0H1.77778C0.795889 0 0 0.767571 0 1.71429V2.57143H16V1.71429C16 0.767571 15.2041 0 14.2222 0ZM0 10.2857C0 11.2324 0.795889 12 1.77778 12H14.2222C15.2041 12 16 11.2324 16 10.2857V5.14286H0V10.2857ZM5.33333 8.78571C5.33333 8.66727 5.43283 8.57143 5.55556 8.57143H9.55556C9.67828 8.57143 9.77778 8.66727 9.77778 8.78571V9.21428C9.77778 9.33262 9.67828 9.42857 9.55556 9.42857H5.55556C5.43283 9.42857 5.33333 9.33262 5.33333 9.21428V8.78571ZM1.77778 8.78571C1.77778 8.66727 1.87728 8.57143 2 8.57143H4.22222C4.34494 8.57143 4.44444 8.66727 4.44444 8.78571V9.21428C4.44444 9.33262 4.34494 9.42857 4.22222 9.42857H2C1.87728 9.42857 1.77778 9.33262 1.77778 9.21428V8.78571Z" fill="white"/>
</svg>
