<svg width="16" height="12" viewBox="0 0 16 12" fill="none" xmlns="http://www.w3.org/2000/svg">
<path id="Vector" d="M14.2222 0H1.77778C0.795944 0 0 0.767464 0 1.71429V10.2857C0 11.2325 0.795944 12 1.77778 12H14.2222C15.2041 12 16 11.2325 16 10.2857V1.71429C16 0.767464 15.2041 0 14.2222 0ZM1.33681 1.71429C1.33681 1.47755 1.53581 1.28571 1.78125 1.28571H14.2188C14.4642 1.28571 14.6632 1.47755 14.6632 1.71429V2.57143H1.33681V1.71429ZM14.6632 10.2857C14.6632 10.5224 14.4642 10.7143 14.2188 10.7143H1.78125C1.53581 10.7143 1.33681 10.5224 1.33681 10.2857L1.33333 5.14286H14.6667L14.6632 10.2857ZM3.33333 9.42857H4.66667C5.03472 9.42857 5.33333 9.14062 5.33333 8.78571C5.33333 8.4308 5.03472 8.14286 4.66667 8.14286H3.33333C2.96528 8.14286 2.66667 8.4308 2.66667 8.78571C2.66667 9.14062 2.96528 9.42857 3.33333 9.42857ZM6.88889 9.42857H10C10.3682 9.42857 10.6667 9.14073 10.6667 8.78571C10.6667 8.43064 10.3682 8.14286 10 8.14286H6.88889C6.52072 8.14286 6.22222 8.43064 6.22222 8.78571C6.22222 9.14073 6.52072 9.42857 6.88889 9.42857Z" fill="#667085"/>
</svg>
