<svg width="14" height="16" viewBox="0 0 14 16" fill="none" xmlns="http://www.w3.org/2000/svg">
<path id="Vector" d="M13.25 2.5H10.9258L9.86328 0.726562C9.58984 0.277344 9.10156 0 8.57422 0H5.42578C4.89844 0 4.41016 0.277344 4.13672 0.726562L3.07422 2.5H0.75C0.335781 2.5 0 2.83578 0 3.25C0 3.66422 0.335781 4 0.75 4H1L1.66406 14.5938C1.71094 15.3828 2.36719 16 3.16016 16H10.8398C11.6328 16 12.2891 15.3828 12.3359 14.5938L13 4H13.25C13.6642 4 14 3.66422 14 3.25C14 2.83578 13.6642 2.5 13.25 2.5ZM5.42578 1.5H8.57422L9.17578 2.5H4.82422L5.42578 1.5ZM10.8398 14.5H3.16016L2.50391 4H11.4961L10.8398 14.5Z" fill="#101828"/>
</svg>
