<svg width="16" height="14" viewBox="0 0 16 14" fill="none" xmlns="http://www.w3.org/2000/svg">
<path id="Vector" d="M12.8889 11.375C12.1525 11.375 11.5556 11.9626 11.5556 12.6875C11.5556 13.4124 12.1525 14 12.8889 14C13.6253 14 14.2222 13.4124 14.2222 12.6875C14.2222 11.9626 13.6253 11.375 12.8889 11.375ZM4.88889 11.375C4.1525 11.375 3.55556 11.9626 3.55556 12.6875C3.55556 13.4124 4.1525 14 4.88889 14C5.62528 14 6.22222 13.4124 6.22222 12.6875C6.22222 11.9626 5.62528 11.375 4.88889 11.375ZM15.8202 1.2232C15.6506 1.0019 15.3919 0.875 15.1102 0.875H3.38769L3.32161 0.533477C3.26172 0.223945 2.98681 0 2.66672 0H0.666667C0.298472 0 0 0.293809 0 0.65625C0 1.01869 0.298472 1.3125 0.666667 1.3125H2.11503L3.78956 9.96655C3.84944 10.2761 4.12436 10.5 4.44444 10.5H13.5556C13.9237 10.5 14.2222 10.2062 14.2222 9.84375C14.2222 9.48131 13.9237 9.1875 13.5556 9.1875H4.99608L4.74214 7.875H13.5863C13.9833 7.875 14.3322 7.61592 14.4414 7.24011L15.9652 1.99054C16.0425 1.72394 15.9895 1.44452 15.8202 1.2232Z" fill="white"/>
</svg>
