<svg width="21" height="12" viewBox="0 0 21 12" fill="none" xmlns="http://www.w3.org/2000/svg">
<path id="Vector" d="M12.6504 5.1405C12.7101 5.44338 12.7527 5.74625 12.7527 6.13912C12.7527 9.56891 10.3567 12 6.75 12C3.29674 12 0.5 9.31516 0.5 6C0.5 2.68484 3.29674 0 6.75 0C8.43828 0 9.84515 0.589344 10.9366 1.57162L9.23975 3.13506C8.7793 2.70941 7.9693 2.21009 6.75 2.21009C4.61836 2.21009 2.87891 3.9045 2.87891 6C2.87891 8.0955 4.61836 9.78991 6.75 9.78991C9.22269 9.78991 10.1521 8.07912 10.297 7.20325H6.75V5.14047H12.6504V5.1405ZM18.6858 5.34166V3.6H16.8628V5.34166H15.0486V7.09169H16.8628V8.83334H18.6858V7.09169H20.5V5.34166H18.6858Z" fill="#FF3D00"/>
</svg>
