<svg width="16" height="14" viewBox="0 0 16 14" fill="none" xmlns="http://www.w3.org/2000/svg">
<path id="Vector" d="M4.88889 11.375C4.1525 11.375 3.55556 11.9626 3.55556 12.6875C3.55556 13.4124 4.1525 14 4.88889 14C5.62528 14 6.22222 13.4124 6.22222 12.6875C6.22222 11.9626 5.62528 11.375 4.88889 11.375ZM12.8889 11.375C12.1525 11.375 11.5556 11.9626 11.5556 12.6875C11.5556 13.4124 12.1525 14 12.8889 14C13.6253 14 14.2222 13.4124 14.2222 12.6875C14.2222 11.9626 13.6253 11.375 12.8889 11.375ZM15.8202 1.2232C15.6506 1.0019 15.3919 0.875 15.1102 0.875H3.38769L3.32161 0.533477C3.26172 0.223918 2.98675 0 2.66667 0H0.666667C0.2985 0 0 0.293781 0 0.65625C0 1.01866 0.2985 1.3125 0.666667 1.3125H2.11503L3.78956 9.96647C3.84944 10.276 4.12442 10.5 4.4445 10.5H13.5556C13.9237 10.5 14.2222 10.2062 14.2222 9.84375C14.2222 9.48128 13.9237 9.1875 13.5556 9.1875H4.99608L4.74214 7.875H13.5868C13.9835 7.875 14.3322 7.61608 14.4413 7.24054L15.9652 1.99054C16.0425 1.72394 15.9895 1.44452 15.8202 1.2232ZM13.2514 6.5625H4.48817L3.64167 2.1875H14.5214L13.2514 6.5625Z" fill="#667085"/>
</svg>
